<?xml version="1.0" encoding="UTF-8" standalone="no"?>
<!-- Generator: Gravit.io -->
<svg xmlns="http://www.w3.org/2000/svg" xmlns:xlink="http://www.w3.org/1999/xlink" style="isolation:isolate" viewBox="0 0 1080 1080" width="1080pt" height="1080pt"><defs><clipPath id="_clipPath_REoNblDAJK0Qc5EgZTZyvZj67FX5Q2xF"><rect width="1080" height="1080"/></clipPath></defs><g clip-path="url(#_clipPath_REoNblDAJK0Qc5EgZTZyvZj67FX5Q2xF)"><rect width="1080" height="1080" style="fill:rgb(46,46,46)" fill-opacity="0"/><g><linearGradient id="_lgradient_2" x1="0.6155778894472361" y1="1.0829145728643215" x2="0.8115577889447236" y2="-0.012562814070351536" gradientTransform="matrix(837.35,0,0,837.35,121.325,121.325)" gradientUnits="userSpaceOnUse"><stop offset="0%" stop-opacity="1" style="stop-color:rgb(18,53,135)"/><stop offset="100%" stop-opacity="1" style="stop-color:rgb(24,180,177)"/></linearGradient><path d=" M 121.325 540 C 121.325 308.927 308.927 121.325 540 121.325 C 771.073 121.325 958.675 308.927 958.675 540 C 958.675 771.073 771.073 958.675 540 958.675 C 308.927 958.675 121.325 771.073 121.325 540 Z  M 269.213 758.366 L 213.896 758.366 L 213.896 514.971 L 267.886 514.971 L 267.886 561.437 Q 267.886 544.178 285.366 527.362 L 285.366 527.362 L 285.366 527.362 Q 302.846 510.545 333.381 510.545 L 333.381 510.545 L 333.381 510.545 Q 369.226 510.545 390.689 534.442 L 390.689 534.442 L 390.689 534.442 Q 412.152 558.339 412.152 598.61 L 412.152 598.61 L 412.152 758.366 L 356.835 758.366 L 356.835 604.363 L 356.835 604.363 Q 356.835 582.236 345.329 570.288 L 345.329 570.288 L 345.329 570.288 Q 333.824 558.339 313.024 558.339 L 313.024 558.339 L 313.024 558.339 Q 292.668 558.339 280.94 570.73 L 280.94 570.73 L 280.94 570.73 Q 269.213 583.121 269.213 606.133 L 269.213 606.133 L 269.213 758.366 L 269.213 758.366 Z  M 613.949 758.366 L 542.701 758.366 L 462.602 514.971 L 519.246 514.971 L 565.713 662.778 L 565.713 662.778 Q 569.695 676.054 573.457 690.215 L 573.457 690.215 L 573.457 690.215 Q 577.219 704.376 578.989 712.784 L 578.989 712.784 L 578.989 712.784 Q 581.201 704.376 584.742 690.215 L 584.742 690.215 L 584.742 690.215 Q 588.282 676.054 591.822 663.22 L 591.822 663.22 L 637.404 514.971 L 693.606 514.971 L 613.949 758.366 L 613.949 758.366 Z " fill-rule="evenodd" fill="url(#_lgradient_2)"/><path d=" M 54 540 C 53.979 507.116 57.303 474.337 63.888 442.127 C 70.284 410.842 79.794 380.293 92.228 350.881 C 116.696 293.171 152.063 240.721 196.413 196.413 C 240.721 152.063 293.171 116.696 350.881 92.228 C 380.293 79.794 410.842 70.284 442.127 63.888 C 474.337 57.303 507.116 53.979 540 54 C 572.884 53.979 605.663 57.303 637.873 63.888 C 669.158 70.284 699.707 79.794 729.119 92.228 C 786.829 116.696 839.279 152.063 883.587 196.413 C 927.937 240.721 963.304 293.171 987.772 350.881 C 1000.206 380.293 1009.716 410.842 1016.112 442.127 C 1022.697 474.337 1026.021 507.116 1026 540 C 1026.021 572.884 1022.697 605.663 1016.112 637.873 C 1009.716 669.158 1000.206 699.707 987.772 729.119 C 963.304 786.829 927.937 839.279 883.587 883.587 C 839.279 927.937 786.829 963.304 729.119 987.772 C 699.707 1000.206 669.158 1009.716 637.873 1016.112 C 605.663 1022.697 572.884 1026.021 540 1026 C 507.116 1026.021 474.337 1022.697 442.127 1016.112 C 410.842 1009.716 380.293 1000.206 350.881 987.772 C 293.171 963.304 240.721 927.937 196.413 883.587 C 152.063 839.279 116.696 786.829 92.228 729.119 C 79.794 699.707 70.284 669.158 63.888 637.873 C 57.303 605.663 53.979 572.884 54 540 Z  M 91.87 540 C 91.849 509.683 94.9 479.429 100.98 449.722 C 106.892 420.898 115.644 392.748 127.089 365.65 C 149.664 312.422 182.296 264.053 223.195 223.195 C 264.053 182.296 312.422 149.664 365.65 127.089 C 392.748 115.644 420.898 106.892 449.722 100.98 C 479.429 94.9 509.683 91.849 540 91.87 C 570.317 91.849 600.571 94.9 630.278 100.98 C 659.102 106.892 687.252 115.644 714.35 127.089 C 767.578 149.664 815.947 182.296 856.805 223.195 C 897.704 264.053 930.336 312.422 952.911 365.65 C 964.356 392.748 973.108 420.898 979.02 449.722 C 985.1 479.429 988.151 509.683 988.13 540 C 988.151 570.317 985.1 600.571 979.02 630.278 C 973.108 659.102 964.356 687.252 952.911 714.35 C 930.336 767.578 897.704 815.947 856.805 856.805 C 815.947 897.704 767.578 930.336 714.35 952.911 C 687.252 964.356 659.102 973.108 630.278 979.02 C 600.571 985.1 570.317 988.151 540 988.13 C 509.683 988.151 479.429 985.1 449.722 979.02 C 420.898 973.108 392.748 964.356 365.65 952.911 C 312.422 930.336 264.053 897.704 223.195 856.805 C 182.296 815.947 149.664 767.578 127.089 714.35 C 115.644 687.252 106.892 659.102 100.98 630.278 C 94.9 600.571 91.849 570.317 91.87 540 Z " fill-rule="evenodd" fill="rgb(185,185,185)"/></g></g></svg>