<?xml version="1.0" standalone="no"?>
<!DOCTYPE svg PUBLIC "-//W3C//DTD SVG 20010904//EN"
 "http://www.w3.org/TR/2001/REC-SVG-20010904/DTD/svg10.dtd">
<svg version="1.0" xmlns="http://www.w3.org/2000/svg"
 width="700.000000pt" height="700.000000pt" viewBox="0 0 700.000000 700.000000"
 preserveAspectRatio="xMidYMid meet">
<metadata>
Created by potrace 1.14, written by Peter Selinger 2001-2017
</metadata>
<g transform="translate(0.000000,700.000000) scale(0.100000,-0.100000)"
fill="#FFFFFF" stroke="none">
<path d="M3275 6264 c-583 -62 -1038 -241 -1485 -584 -122 -94 -376 -348 -470
-470 -311 -405 -492 -831 -567 -1335 -25 -169 -25 -581 0 -750 75 -504 256
-930 567 -1335 94 -122 348 -376 470 -470 397 -305 818 -486 1305 -562 189
-29 597 -32 780 -5 503 75 930 256 1335 567 122 94 375 347 470 470 410 533
608 1140 587 1800 -20 601 -212 1131 -587 1620 -94 122 -347 375 -470 470
-318 245 -651 409 -1026 505 -218 56 -378 76 -639 80 -126 2 -248 1 -270 -1z
m638 -243 c544 -97 1011 -337 1389 -713 330 -329 567 -749 678 -1200 57 -231
65 -309 65 -608 0 -220 -4 -297 -18 -383 -46 -274 -121 -507 -237 -742 -131
-266 -282 -476 -485 -680 -378 -377 -848 -619 -1392 -716 -149 -27 -507 -37
-675 -20 -305 32 -586 114 -873 256 -507 251 -903 649 -1155 1160 -117 236
-191 469 -237 742 -26 155 -26 611 0 766 46 273 120 506 237 742 251 512 655
915 1165 1165 280 138 547 215 875 254 19 2 150 3 290 1 207 -2 277 -6 373
-24z"/>
<path d="M3200 5864 c-256 -33 -517 -112 -755 -229 -1062 -524 -1576 -1739
-1215 -2870 115 -359 314 -682 589 -955 651 -647 1598 -863 2466 -562 770 267
1361 926 1540 1718 69 308 76 661 19 970 -69 377 -245 757 -489 1059 -86 106
-261 281 -360 361 -351 280 -774 458 -1212 509 -155 18 -439 18 -583 -1z
m-759 -2210 c156 -35 272 -160 314 -336 12 -51 15 -158 15 -567 l0 -504 -52 7
c-29 3 -99 6 -154 6 l-101 0 -6 473 c-6 508 -7 518 -60 583 -44 53 -97 74
-188 74 -122 0 -198 -49 -235 -152 -11 -33 -14 -126 -14 -509 l0 -469 -160 0
-160 0 0 690 0 690 155 0 155 0 0 -107 0 -107 25 51 c77 153 262 224 466 177z
m1068 -412 c108 -344 178 -578 206 -687 6 -26 13 -10 45 110 20 77 95 328 165
558 l128 417 159 0 160 0 -7 -27 c-3 -16 -104 -327 -225 -693 l-219 -665 -202
0 -203 0 -223 675 c-123 371 -226 683 -229 693 -5 16 7 17 158 17 l163 0 124
-398z"/>
</g>
</svg>
