<?xml version="1.0" encoding="UTF-8" standalone="no"?>
<!-- Generator: Gravit.io -->
<svg xmlns="http://www.w3.org/2000/svg" xmlns:xlink="http://www.w3.org/1999/xlink" style="isolation:isolate" viewBox="0 0 50 50" width="50pt" height="50pt"><defs><clipPath id="_clipPath_2RFBoGwhTFEK9T2E6BKFq4NGUIt18E00"><rect width="50" height="50"/></clipPath></defs><g clip-path="url(#_clipPath_2RFBoGwhTFEK9T2E6BKFq4NGUIt18E00)"><rect width="50" height="50" style="fill:rgb(46,46,46)" fill-opacity="0"/><path d=" M 2.5 25 C 2.499 23.478 2.653 21.96 2.958 20.469 C 3.254 19.02 3.694 17.606 4.27 16.244 C 5.403 13.573 7.04 11.144 9.093 9.093 C 11.144 7.04 13.573 5.403 16.244 4.27 C 17.606 3.694 19.02 3.254 20.469 2.958 C 21.96 2.653 23.478 2.499 25 2.5 C 26.522 2.499 28.04 2.653 29.531 2.958 C 30.98 3.254 32.394 3.694 33.756 4.27 C 36.427 5.403 38.856 7.04 40.907 9.093 C 42.96 11.144 44.597 13.573 45.73 16.244 C 46.306 17.606 46.746 19.02 47.042 20.469 C 47.347 21.96 47.501 23.478 47.5 25 C 47.501 26.522 47.347 28.04 47.042 29.531 C 46.746 30.98 46.306 32.394 45.73 33.756 C 44.597 36.427 42.96 38.856 40.907 40.907 C 38.856 42.96 36.427 44.597 33.756 45.73 C 32.394 46.306 30.98 46.746 29.531 47.042 C 28.04 47.347 26.522 47.501 25 47.5 C 23.478 47.501 21.96 47.347 20.469 47.042 C 19.02 46.746 17.606 46.306 16.244 45.73 C 13.573 44.597 11.144 42.96 9.093 40.907 C 7.04 38.856 5.403 36.427 4.27 33.756 C 3.694 32.394 3.254 30.98 2.958 29.531 C 2.653 28.04 2.499 26.522 2.5 25 Z  M 4.253 25 C 4.252 23.596 4.394 22.196 4.675 20.82 C 4.949 19.486 5.354 18.183 5.884 16.928 C 6.929 14.464 8.44 12.225 10.333 10.333 C 12.225 8.44 14.464 6.929 16.928 5.884 C 18.183 5.354 19.486 4.949 20.82 4.675 C 22.196 4.394 23.596 4.252 25 4.253 C 26.404 4.252 27.804 4.394 29.18 4.675 C 30.514 4.949 31.817 5.354 33.072 5.884 C 35.536 6.929 37.775 8.44 39.667 10.333 C 41.56 12.225 43.071 14.464 44.116 16.928 C 44.646 18.183 45.051 19.486 45.325 20.82 C 45.606 22.196 45.748 23.596 45.747 25 C 45.748 26.404 45.606 27.804 45.325 29.18 C 45.051 30.514 44.646 31.817 44.116 33.072 C 43.071 35.536 41.56 37.775 39.667 39.667 C 37.775 41.56 35.536 43.071 33.072 44.116 C 31.817 44.646 30.514 45.051 29.18 45.325 C 27.804 45.606 26.404 45.748 25 45.747 C 23.596 45.748 22.196 45.606 20.82 45.325 C 19.486 45.051 18.183 44.646 16.928 44.116 C 14.464 43.071 12.225 41.56 10.333 39.667 C 8.44 37.775 6.929 35.536 5.884 33.072 C 5.354 31.817 4.949 30.514 4.675 29.18 C 4.394 27.804 4.252 26.404 4.253 25 Z " fill-rule="evenodd" fill="rgb(185,185,185)" fill-opacity="0.25"/></g></svg>